<svg version="1.1" id="Layer_1" xmlns="http://www.w3.org/2000/svg" xmlns:xlink="http://www.w3.org/1999/xlink" x="0px" y="0px"
	 width="100%" viewBox="0 0 512 512" enable-background="new 0 0 512 512" xml:space="preserve">
<path fill="#236cb1" opacity="1.000000" stroke="none" 
	d="
M236.531342,1.000000 
	C242.637512,4.315755 249.282593,4.484798 255.247437,6.997680 
	C270.581940,13.457817 284.201843,22.049484 295.682709,34.331505 
	C309.680817,49.306377 318.671539,66.654404 322.731903,86.587067 
	C325.462463,99.991447 325.645996,113.633629 325.308838,127.256294 
	C325.118042,134.964142 326.463776,141.772247 330.148712,149.018478 
	C341.358154,171.060913 327.157593,198.502960 302.080902,201.320160 
	C299.674835,201.590454 298.713593,202.530212 298.298828,204.962158 
	C294.907806,224.844833 285.862091,241.527924 269.964844,254.250168 
	C268.347137,255.544785 267.294922,257.084320 267.329956,259.346893 
	C267.422852,265.345154 267.435028,271.347168 267.324310,277.344849 
	C267.276093,279.956573 268.461273,281.070374 270.826385,281.983337 
	C283.825958,287.001404 296.766052,292.175476 309.687988,297.391479 
	C312.712189,298.612183 314.618927,297.413910 316.608765,295.280670 
	C326.503662,284.672699 338.164185,276.636993 351.580017,271.011536 
	C358.532532,268.096283 365.796722,266.479980 373.058472,264.827484 
	C377.239532,263.876038 381.545074,266.871857 382.261505,270.584656 
	C383.358185,276.268158 381.365814,280.290924 376.276947,281.336426 
	C361.848572,284.300537 348.679077,290.071564 337.323975,299.372650 
	C317.824371,315.345001 306.445587,335.709656 304.222107,361.196167 
	C302.456940,381.429199 307.432953,399.890015 318.410126,416.435272 
	C333.044312,438.492584 353.605316,451.978149 380.243927,455.758392 
	C402.548676,458.923645 423.020477,453.938263 441.287628,441.397034 
	C463.146271,426.390045 476.303558,405.473572 479.675232,378.854736 
	C482.978577,352.775757 475.292328,330.098969 458.305054,310.338745 
	C445.775238,295.763580 430.071136,286.537933 411.349182,282.272736 
	C403.662933,280.521637 401.350708,277.973145 401.677429,272.458832 
	C401.990204,267.179260 405.994263,263.826691 411.184296,264.835236 
	C430.141235,268.519073 446.922913,276.510651 461.613922,289.273621 
	C480.771759,305.917084 491.963501,326.967499 495.932220,351.580963 
	C500.822266,381.908722 493.617310,409.549652 474.334686,433.756958 
	C461.031097,450.458191 444.307434,462.260162 423.839386,468.541443 
	C420.417816,469.591461 419.252747,471.404022 419.249664,475.005798 
	C419.243225,482.475311 419.793060,489.946869 418.838806,497.435272 
	C417.991821,504.081512 414.493561,508.705597 409.146301,512.703613 
	C281.645782,513.000000 154.291550,513.000000 26.337570,512.691040 
	C17.707832,506.800262 16.470177,498.742249 16.551546,489.641846 
	C16.828518,458.665985 16.644083,427.686127 16.678640,396.707855 
	C16.684000,391.902740 16.853214,387.138702 17.489727,382.315002 
	C21.500576,351.919617 38.462677,331.595795 66.275757,320.333893 
	C98.421524,307.317566 130.898300,295.118744 163.231018,282.564087 
	C164.930161,281.904327 167.516602,281.340698 167.301682,279.403961 
	C166.272888,270.132233 171.614487,260.154022 161.340546,251.970169 
	C146.724777,240.327728 138.459412,224.278778 135.489960,205.665314 
	C135.164886,203.627609 134.659973,201.548569 131.649002,201.288849 
	C124.527023,200.674545 118.394722,197.766174 112.822220,193.161392 
	C99.423401,182.089371 95.175949,161.573853 105.226265,145.977417 
	C107.661011,142.199081 108.699471,138.734604 108.701950,134.460495 
	C108.710121,120.335411 107.714386,106.131302 109.826553,92.116310 
	C113.289864,69.135948 123.190147,49.099449 139.526855,32.522530 
	C153.544403,18.298861 170.234390,8.452011 189.731781,3.552718 
	C191.889206,3.010601 194.458069,3.172553 196.000000,1.000000 
	C209.354233,1.000000 222.708450,1.000000 236.531342,1.000000 
M102.332314,420.504761 
	C102.335228,444.328033 102.378487,468.151489 102.297241,491.974457 
	C102.285164,495.516479 102.985535,497.686737 107.173790,497.668060 
	C127.997993,497.575165 148.822922,497.603149 169.647385,497.660797 
	C172.752548,497.669403 174.133713,496.216339 174.616287,493.298248 
	C180.289566,458.993286 185.711975,424.642059 191.925034,390.434631 
	C193.352371,382.576172 190.829361,377.368835 185.936554,372.075531 
	C184.803879,372.658966 183.768814,373.143372 182.780151,373.708923 
	C173.135910,379.225800 163.141510,376.474243 158.229858,365.608551 
	C151.248871,350.165100 143.154434,335.226837 135.619324,320.031281 
	C132.054382,312.842102 132.147186,312.811279 124.454132,315.791931 
	C108.216965,322.082977 91.993904,328.411072 75.729141,334.630035 
	C49.150604,344.792542 33.932095,366.046021 33.496983,391.171631 
	C32.917259,424.647705 33.414474,458.141541 33.281734,491.627106 
	C33.263123,496.322510 35.220055,497.728699 39.569309,497.689026 
	C53.562317,497.561371 67.558487,497.538452 81.550598,497.708618 
	C85.547668,497.757233 86.752174,496.211884 86.705719,492.395111 
	C86.553658,479.902191 86.658478,467.406219 86.660744,454.911407 
	C86.663498,439.751038 86.636978,424.590637 86.675232,409.430359 
	C86.690941,403.205017 89.223251,400.575958 94.894051,400.670258 
	C100.344444,400.760895 102.260941,403.025696 102.321663,409.511597 
	C102.352852,412.843262 102.330513,416.175446 102.332314,420.504761 
M282.666412,189.442490 
	C282.662048,170.778885 282.561646,152.114426 282.730469,133.452393 
	C282.766235,129.496857 281.739166,126.576004 278.859497,123.762230 
	C273.517365,118.542267 268.341003,113.099564 263.616425,107.323616 
	C261.342987,104.544296 259.892273,104.628311 257.108856,106.289200 
	C241.214279,115.773544 224.350006,123.014900 206.430145,127.785950 
	C189.784836,132.217667 172.881073,134.183701 155.684509,133.319809 
	C151.535049,133.111343 150.122696,134.588058 150.264877,138.740402 
	C150.532745,146.563263 150.323318,154.401932 150.342224,162.233948 
	C150.372726,174.866913 149.553207,187.583145 151.504852,200.092300 
	C157.385101,237.781937 191.966354,261.487305 228.357986,255.339493 
	C260.552948,249.900665 283.091248,222.320435 282.666412,189.442490 
M156.584152,40.159103 
	C149.237991,45.594337 144.228958,53.040123 139.275604,60.494408 
	C130.902771,73.094612 127.043579,87.344864 125.584763,102.123352 
	C124.682808,111.260582 125.417557,120.559357 125.417557,130.212448 
	C130.523026,129.020050 134.339554,128.543320 136.838333,123.502640 
	C139.350296,118.435371 144.886520,116.359894 150.871384,116.653725 
	C172.634232,117.722206 193.822601,114.856491 214.431442,107.622284 
	C227.820129,102.922546 240.415680,96.645401 252.484863,89.270073 
	C262.074829,83.409782 269.893494,88.133423 275.433777,94.254578 
	C281.664307,101.138344 287.822174,108.089806 294.153015,114.880013 
	C296.956329,117.886742 299.264526,121.022476 299.328064,125.288773 
	C299.361603,127.540787 300.222076,128.679993 302.586151,128.666519 
	C304.371368,128.656342 306.157990,128.893082 308.349182,129.048691 
	C309.124542,116.901184 308.666504,105.062820 306.732941,93.254875 
	C302.879578,69.722847 291.166748,50.852074 272.547211,36.291481 
	C255.166534,22.699684 235.330383,16.474669 213.181335,17.291801 
	C191.750488,18.082438 173.198196,25.677479 156.584152,40.159103 
M273.525269,497.648987 
	C291.523590,497.648865 309.522614,497.561890 327.519623,497.716766 
	C331.447174,497.750549 332.787415,496.425446 332.718079,492.512482 
	C332.526276,481.683533 332.544189,470.847168 332.716919,460.017517 
	C332.773773,456.453125 331.386902,454.293427 328.597534,452.155121 
	C310.256653,438.095184 297.813782,420.023651 291.285889,397.713593 
	C287.017426,383.125519 286.458099,368.407623 287.753510,353.475677 
	C287.999664,350.637848 289.167328,347.876953 288.479645,343.599091 
	C284.042999,352.222626 280.151581,359.723938 276.319061,367.255188 
	C273.144135,373.494202 268.273773,376.427246 261.111298,376.485260 
	C256.410980,376.523346 253.346558,373.038177 249.078522,372.082245 
	C247.197922,375.035095 245.448746,377.844360 243.630859,380.608429 
	C242.775528,381.908966 242.232300,383.215820 242.518753,384.819855 
	C244.670654,396.869965 246.736664,408.935822 248.962692,420.972107 
	C249.964859,426.390747 247.691177,431.325500 243.450058,432.256653 
	C237.740112,433.510345 234.073532,431.206390 232.686874,424.841125 
	C230.856766,416.440277 229.418594,407.953796 227.827438,399.501190 
	C225.638397,387.872559 225.647690,387.995056 213.804352,388.288513 
	C210.420944,388.372345 208.940674,389.850342 208.438309,392.853394 
	C207.073166,401.013916 205.762482,409.183594 204.381546,417.341400 
	C200.210388,441.982147 196.045807,466.624054 191.806091,491.253052 
	C190.953690,496.204834 191.918304,497.613831 197.030396,497.630157 
	C209.862457,497.671143 222.695099,497.703339 235.526840,497.626221 
	C246.276993,497.561554 244.678726,498.933136 243.088684,488.207886 
	C241.682465,478.722626 239.822662,469.291870 238.788666,459.769135 
	C238.211685,454.455383 240.731125,452.048309 245.388763,451.674316 
	C250.919281,451.230164 254.380432,453.573975 255.246689,458.480225 
	C256.944153,468.094238 258.622467,477.712006 260.231598,487.341125 
	C261.953308,497.644135 261.914520,497.650604 273.525269,497.648987 
M200.834579,303.703186 
	C206.606247,310.030121 211.090088,317.472504 217.641205,323.424957 
	C218.574142,322.744080 219.522278,322.310120 220.110321,321.584381 
	C229.477417,310.023499 238.832932,298.452789 248.115829,286.824249 
	C252.958344,280.758087 249.969284,274.096252 250.346588,267.172119 
	C248.493851,267.669220 247.691238,267.828979 246.927109,268.098022 
	C237.307541,271.484955 227.321503,273.397552 217.207779,273.183990 
	C207.486313,272.978699 197.734009,271.792480 188.490692,268.257538 
	C186.901184,267.649628 184.653305,266.740082 184.600403,269.218201 
	C184.465912,275.516998 182.717163,282.069427 187.929443,287.673798 
	C192.425568,292.508148 196.234268,297.981873 200.834579,303.703186 
M185.370209,350.807068 
	C191.556625,345.902893 198.563492,342.058594 204.474838,336.548828 
	C203.783127,335.363586 203.389008,334.439880 202.782837,333.686890 
	C193.546677,322.213409 184.260117,310.780426 175.048706,299.287170 
	C173.597794,297.476868 172.103745,297.642242 170.234085,298.380890 
	C164.393753,300.688263 158.588196,303.121674 152.626770,305.070679 
	C148.921585,306.282074 148.418442,307.806793 150.156555,311.199402 
	C156.821442,324.208679 163.227661,337.350220 169.805588,350.404510 
	C171.117691,353.008484 172.042419,355.891083 174.340164,358.285553 
	C177.973831,355.828613 181.378922,353.526215 185.370209,350.807068 
M270.455566,341.021332 
	C275.427002,331.062561 280.325806,321.066467 285.413086,311.167206 
	C286.987946,308.102692 286.514038,306.359863 283.220001,305.143219 
	C277.168915,302.908295 271.166565,300.535248 265.195343,298.093994 
	C263.164154,297.263580 261.769958,297.642456 260.423920,299.321716 
	C251.212738,310.813416 241.961777,322.273224 232.711533,333.733582 
	C231.153854,335.663391 231.211441,337.208130 233.404922,338.691498 
	C236.559662,340.824799 239.577530,343.159332 242.685089,345.363892 
	C248.837723,349.728729 255.011780,354.063385 261.021393,358.300812 
	C261.790527,357.686676 262.153381,357.535492 262.287994,357.269012 
	C264.908630,352.081055 267.502594,346.879578 270.455566,341.021332 
M393.323975,497.648987 
	C402.432281,497.644012 402.641144,497.440125 402.652985,488.509430 
	C402.656311,486.016846 402.654999,483.524231 402.654053,481.031647 
	C402.651093,473.355133 402.642639,473.133301 395.190460,473.404755 
	C383.832031,473.818481 372.786255,472.200104 361.864807,469.256226 
	C357.952148,468.201569 354.380402,465.936157 349.350098,465.513641 
	C349.350098,474.838013 349.529694,483.743317 349.269318,492.635773 
	C349.150818,496.682495 350.648102,497.769928 354.485016,497.714172 
	C367.111450,497.530670 379.742279,497.647064 393.323975,497.648987 
M299.350525,166.498871 
	C299.350525,172.393143 299.350525,178.287430 299.350525,184.238922 
	C309.814270,183.139206 315.874908,176.574158 316.902313,166.211487 
	C317.733612,157.827225 311.188507,148.455399 303.167542,145.976685 
	C299.841217,144.948715 299.347839,146.386734 299.352966,149.021805 
	C299.363617,154.514343 299.352814,160.006912 299.350525,166.498871 
M134.655487,160.508759 
	C134.655487,155.753525 134.655487,150.998291 134.655487,146.195923 
	C123.565445,147.381836 117.136917,156.357437 116.395241,163.643311 
	C115.577698,171.674301 122.435959,181.278656 130.301849,183.857086 
	C133.481934,184.899521 134.653931,184.094833 134.644547,180.905243 
	C134.625504,174.438538 134.648895,167.971741 134.655487,160.508759 
M234.340454,362.982758 
	C234.902145,361.503754 234.301971,360.517639 233.152054,359.544373 
	C219.197861,347.734161 218.455307,347.700684 203.834763,358.641174 
	C203.568573,358.840332 203.306305,359.045349 203.033035,359.234406 
	C200.880737,360.723358 200.589600,362.356537 201.976898,364.729706 
	C204.746323,369.467163 207.979340,372.960846 214.153992,371.692535 
	C215.591217,371.397308 217.183121,371.418488 218.631210,371.686554 
	C225.924454,373.036743 231.098511,370.511078 234.340454,362.982758 
z"/>
<path fill="#236cb1" opacity="1.000000" stroke="none" 
	d="
M318.699921,397.018066 
	C309.235199,369.518158 311.832214,343.873474 329.282471,320.736633 
	C346.495239,297.914612 370.135925,287.794495 398.407410,289.806183 
	C433.943726,292.334839 462.853973,317.857544 469.188721,352.863373 
	C474.388763,381.598755 466.888336,406.950134 444.952423,426.912537 
	C432.661896,438.097382 417.983459,444.554718 401.206268,446.520325 
	C376.882690,449.370026 356.076721,441.799469 338.027618,426.082794 
	C329.155914,418.357544 323.155579,408.332947 318.699921,397.018066 
M438.682648,409.152039 
	C439.437744,408.066315 440.137054,406.936432 440.956390,405.901581 
	C452.377625,391.476257 455.736176,375.099945 452.813934,357.183411 
	C450.001465,339.939667 440.578979,326.815552 426.594757,317.090729 
	C413.921326,308.277405 399.547821,304.454803 384.117157,307.003265 
	C360.582947,310.890106 343.790894,323.669830 334.538513,345.953979 
	C330.347626,356.047546 329.123535,366.595520 330.800507,377.202240 
	C333.354858,393.358185 341.332367,406.634003 354.155151,416.947662 
	C365.751678,426.275146 379.225220,431.025055 393.797424,430.387573 
	C411.110779,429.630188 426.255280,422.702606 438.682648,409.152039 
z"/>
<path fill="#236cb1" opacity="1.000000" stroke="none" 
	d="
M362.910767,363.219177 
	C368.017944,358.581726 372.096466,358.433929 376.752777,362.595184 
	C379.356476,364.921997 381.863434,367.382629 384.199188,369.976410 
	C386.483093,372.512665 388.285919,372.597565 390.768250,370.070862 
	C398.684113,362.013428 406.873627,354.236755 415.131012,346.521057 
	C419.260712,342.662231 425.074860,342.732483 428.143341,345.247864 
	C431.155884,347.717377 431.125061,353.329620 428.133881,357.537567 
	C425.107513,361.794983 420.646240,364.564209 416.963287,368.136627 
	C409.671478,375.209717 402.581573,382.490509 395.353424,389.629944 
	C389.960175,394.957031 385.090179,395.000366 379.711792,389.746216 
	C374.708496,384.858490 369.805786,379.867554 364.873810,374.907074 
	C361.610840,371.625275 360.581207,367.894287 362.910767,363.219177 
z"/>
</svg>