<?xml version="1.0" encoding="UTF-8"?>
<!DOCTYPE svg PUBLIC "-//W3C//DTD SVG 1.1//EN" "http://www.w3.org/Graphics/SVG/1.1/DTD/svg11.dtd">
<svg xmlns="http://www.w3.org/2000/svg" version="1.1" width="512px" height="512px" style="shape-rendering:geometricPrecision; text-rendering:geometricPrecision; image-rendering:optimizeQuality; fill-rule:evenodd; clip-rule:evenodd" xmlns:xlink="http://www.w3.org/1999/xlink">
<g><path fill="#236cb1" d="M 335.5,84.5 C 387.9,83.7678 422.4,108.101 439,157.5C 447.621,197.304 436.787,230.804 406.5,258C 446.325,271.295 467.325,298.961 469.5,341C 467.814,375.668 451.814,401.334 421.5,418C 412.233,422.089 402.566,424.755 392.5,426C 301.5,426.667 210.5,426.667 119.5,426C 78.4715,419.973 52.9715,396.807 43,356.5C 37.796,317.418 51.6293,287.252 84.5,266C 101.381,256.924 119.381,253.424 138.5,255.5C 151.088,208.413 181.088,178.913 228.5,167C 235.077,165.404 241.744,164.57 248.5,164.5C 255.563,130.551 274.897,106.384 306.5,92C 316.008,88.3739 325.675,85.8739 335.5,84.5 Z M 337.5,102.5 C 372.886,101.775 399.053,116.775 416,147.5C 432.729,193.986 420.062,229.986 378,255.5C 376.616,262.411 376.116,269.411 376.5,276.5C 354.833,276.5 333.167,276.5 311.5,276.5C 311.666,269.825 311.5,263.158 311,256.5C 305.137,251.645 298.971,247.145 292.5,243C 261.888,212.384 256.721,177.884 277,139.5C 291.756,118.23 311.923,105.896 337.5,102.5 Z M 241.5,182.5 C 243.167,182.5 244.833,182.5 246.5,182.5C 247.546,218.272 262.879,245.939 292.5,265.5C 293.331,273.145 293.831,280.812 294,288.5C 295.122,290.624 296.622,292.457 298.5,294C 328.833,294.667 359.167,294.667 389.5,294C 391.667,293.167 393.167,291.667 394,289.5C 394.499,284.511 394.666,279.511 394.5,274.5C 427.175,281.345 446.009,301.345 451,334.5C 450.967,375.536 430.8,400.036 390.5,408C 300.5,408.667 210.5,408.667 120.5,408C 83.4248,400.924 63.0915,378.591 59.5,341C 62.5663,304.509 81.8996,282.176 117.5,274C 126.744,273.136 135.911,273.636 145,275.5C 147.321,275.091 149.487,274.257 151.5,273C 159.007,234.513 180.34,206.847 215.5,190C 224.117,186.851 232.783,184.351 241.5,182.5 Z"/></g>
<g><path fill="#236cb1" d="M 306.5,310.5 C 331.836,310.333 357.169,310.5 382.5,311C 390.09,316.215 390.423,321.882 383.5,328C 357.5,328.667 331.5,328.667 305.5,328C 299.684,324.238 298.518,319.405 302,313.5C 303.652,312.601 305.152,311.601 306.5,310.5 Z"/></g>
<g><path fill="#236cb1" d="M 321.5,344.5 C 336.837,344.333 352.17,344.5 367.5,345C 375.5,350.667 375.5,356.333 367.5,362C 351.833,362.667 336.167,362.667 320.5,362C 315.845,359.103 314.345,354.937 316,349.5C 317.73,347.598 319.563,345.931 321.5,344.5 Z"/></g>
</svg>
