<?xml version="1.0" encoding="UTF-8"?>
<!DOCTYPE svg PUBLIC "-//W3C//DTD SVG 1.1//EN" "http://www.w3.org/Graphics/SVG/1.1/DTD/svg11.dtd">
<svg xmlns="http://www.w3.org/2000/svg" version="1.1" width="512px" height="512px" style="shape-rendering:geometricPrecision; text-rendering:geometricPrecision; image-rendering:optimizeQuality; fill-rule:evenodd; clip-rule:evenodd" xmlns:xlink="http://www.w3.org/1999/xlink">
<g><path style="opacity:0.966" fill="#236cb1" d="M 211.5,7.5 C 248.202,7.03871 284.868,7.53871 321.5,9C 351.137,16.6361 371.304,34.8027 382,63.5C 387.393,80.0822 387.726,96.7489 383,113.5C 376.692,131.427 370.192,149.26 363.5,167C 385.027,170.859 394.194,183.693 391,205.5C 388.78,212.101 384.947,217.601 379.5,222C 370,229.5 360.5,237 351,244.5C 346.435,259.027 340.602,273.027 333.5,286.5C 358.493,287.333 383.493,287.833 408.5,288C 424.667,292.167 434.833,302.333 439,318.5C 439.167,332.179 439.667,345.846 440.5,359.5C 475.855,375.697 496.688,403.031 503,441.5C 503.667,460.833 503.667,480.167 503,499.5C 502.626,500.416 502.126,501.25 501.5,502C 419.581,503.164 337.581,503.664 255.5,503.5C 174.167,503.333 92.8333,503.167 11.5,503C 10.5838,502.626 9.75044,502.126 9,501.5C 7.3579,481.59 7.02457,461.59 8,441.5C 14.3116,403.031 35.1449,375.697 70.5,359.5C 71.3327,345.846 71.8327,332.179 72,318.5C 76.1667,302.333 86.3333,292.167 102.5,288C 127.507,287.833 152.507,287.333 177.5,286.5C 170.398,273.027 164.565,259.027 160,244.5C 147.964,235.31 136.298,225.644 125,215.5C 118.494,204.567 117.827,193.234 123,181.5C 128.553,173.636 136.053,168.636 145.5,166.5C 137.728,151.289 130.228,135.956 123,120.5C 120.727,111.618 121.394,102.951 125,94.5C 126.802,85.2677 123.969,77.7677 116.5,72C 107.423,68.8633 98.4229,65.53 89.5,62C 85.5,57.6667 85.5,53.3333 89.5,49C 126.995,25.6687 167.662,11.8354 211.5,7.5 Z M 233.5,23.5 C 260.524,23.1051 287.524,23.6051 314.5,25C 337.54,30.0466 354.04,43.2132 364,64.5C 368.903,76.8148 370.236,89.4815 368,102.5C 365.403,111.626 362.403,120.626 359,129.5C 356.922,118.599 353.255,108.265 348,98.5C 340.419,87.672 333.085,76.672 326,65.5C 321.948,63.0577 317.781,62.891 313.5,65C 302.947,74.8854 291.28,83.2187 278.5,90C 266.172,93.9677 253.505,95.9677 240.5,96C 229.847,97.8844 219.847,101.551 210.5,107C 191.823,120.15 172.823,132.484 153.5,144C 147.993,134.152 143.159,123.985 139,113.5C 140.142,105.379 141.309,97.212 142.5,89C 141.646,71.812 133.313,59.812 117.5,53C 154.047,34.3637 192.713,24.5304 233.5,23.5 Z M 316.5,84.5 C 326.822,95.7765 334.655,108.777 340,123.5C 342.939,138.009 344.105,152.676 343.5,167.5C 318.164,167.333 292.831,167.5 267.5,168C 265.667,168.5 264.5,169.667 264,171.5C 263.501,175.486 263.334,179.486 263.5,183.5C 258.167,183.5 252.833,183.5 247.5,183.5C 247.666,179.486 247.499,175.486 247,171.5C 246.5,169.667 245.333,168.5 243.5,168C 218.169,167.5 192.836,167.333 167.5,167.5C 167.335,163.818 167.501,160.152 168,156.5C 186.081,144.209 204.247,132.043 222.5,120C 236.404,113.489 251.071,110.489 266.5,111C 286.131,107.486 302.797,98.6523 316.5,84.5 Z M 149.5,183.5 C 151.334,194.577 152.834,205.91 154,217.5C 149.923,214.212 145.756,211.045 141.5,208C 134.549,200.253 134.883,192.92 142.5,186C 144.927,185.098 147.26,184.264 149.5,183.5 Z M 168.5,183.5 C 173.5,183.5 178.5,183.5 183.5,183.5C 176.316,222.149 191.983,237.982 230.5,231C 244.628,225.252 250.295,214.752 247.5,199.5C 252.833,199.5 258.167,199.5 263.5,199.5C 260.705,214.752 266.372,225.252 280.5,231C 319.017,237.982 334.684,222.149 327.5,183.5C 332.5,183.5 337.5,183.5 342.5,183.5C 341.966,220.433 332.299,254.766 313.5,286.5C 274.833,287.833 236.167,287.833 197.5,286.5C 178.701,254.766 169.034,220.433 168.5,183.5 Z M 199.5,183.5 C 210.167,183.5 220.833,183.5 231.5,183.5C 231.914,192.582 231.414,201.582 230,210.5C 229.5,212.333 228.333,213.5 226.5,214C 220.251,215.536 213.917,215.87 207.5,215C 203,214.5 200.5,212 200,207.5C 199.5,199.507 199.334,191.507 199.5,183.5 Z M 279.5,183.5 C 290.167,183.5 300.833,183.5 311.5,183.5C 311.914,192.582 311.414,201.582 310,210.5C 309.5,212.333 308.333,213.5 306.5,214C 300.251,215.536 293.917,215.87 287.5,215C 283,214.5 280.5,212 280,207.5C 279.5,199.507 279.334,191.507 279.5,183.5 Z M 359.5,183.5 C 373.249,185.411 377.415,192.745 372,205.5C 367,209.5 362,213.5 357,217.5C 358.683,206.312 359.517,194.979 359.5,183.5 Z M 111.5,303.5 C 207.501,303.333 303.501,303.5 399.5,304C 413.65,305.483 421.483,313.317 423,327.5C 423.5,380.832 423.667,434.166 423.5,487.5C 311.5,487.5 199.5,487.5 87.5,487.5C 87.3333,434.166 87.5,380.832 88,327.5C 89.6947,313.307 97.5281,305.307 111.5,303.5 Z M 69.5,378.5 C 71.4936,414.485 72.1603,450.818 71.5,487.5C 55.5,487.5 39.5,487.5 23.5,487.5C 23.2716,472.475 23.7716,457.475 25,442.5C 30.3296,414.372 45.1629,393.038 69.5,378.5 Z M 439.5,378.5 C 458.266,387.769 471.766,402.103 480,421.5C 482.776,428.269 484.776,435.269 486,442.5C 487.228,457.475 487.728,472.475 487.5,487.5C 471.5,487.5 455.5,487.5 439.5,487.5C 439.5,451.167 439.5,414.833 439.5,378.5 Z M 250.5,416.5 C 267.765,416.257 273.598,424.257 268,440.5C 261.749,447.011 254.582,448.177 246.5,444C 239.989,437.749 238.823,430.582 243,422.5C 245.114,419.879 247.614,417.879 250.5,416.5 Z"/></g>
<g><path style="opacity:0.902" fill="#236cb1" d="M 200.5,313.5 C 205.419,316.748 209.753,320.748 213.5,325.5C 205.167,334.167 196.833,342.833 188.5,351.5C 196.833,360.167 205.167,368.833 213.5,377.5C 209.833,381.833 205.833,385.833 201.5,389.5C 190.514,379.014 179.681,368.348 169,357.5C 167,353.5 167,349.5 169,345.5C 179.702,334.965 190.202,324.298 200.5,313.5 Z"/></g>
<g><path style="opacity:0.901" fill="#236cb1" d="M 308.5,313.5 C 320.08,323.577 331.247,334.243 342,345.5C 344,349.5 344,353.5 342,357.5C 331.319,368.348 320.486,379.014 309.5,389.5C 305.167,385.833 301.167,381.833 297.5,377.5C 305.833,368.833 314.167,360.167 322.5,351.5C 314.167,342.833 305.833,334.167 297.5,325.5C 301.189,321.48 304.855,317.48 308.5,313.5 Z"/></g>
<g><path style="opacity:0.917" fill="#236cb1" d="M 272.5,314.5 C 277.498,317.336 282.165,320.669 286.5,324.5C 270.64,346.232 254.307,367.565 237.5,388.5C 232.948,385.397 228.614,382.064 224.5,378.5C 240.509,357.137 256.509,335.804 272.5,314.5 Z"/></g>
<g><path style="opacity:0.93" fill="#236cb1" d="M 247.5,399.5 C 275.968,397.801 289.134,411.134 287,439.5C 280.645,458.438 267.478,466.272 247.5,463C 228.562,456.645 220.728,443.478 224,423.5C 227.34,410.994 235.174,402.994 247.5,399.5 Z M 250.5,416.5 C 247.614,417.879 245.114,419.879 243,422.5C 238.823,430.582 239.989,437.749 246.5,444C 254.582,448.177 261.749,447.011 268,440.5C 273.598,424.257 267.765,416.257 250.5,416.5 Z"/></g>
</svg>
