<?xml version="1.0" encoding="UTF-8"?>
<!DOCTYPE svg PUBLIC "-//W3C//DTD SVG 1.1//EN" "http://www.w3.org/Graphics/SVG/1.1/DTD/svg11.dtd">
<svg xmlns="http://www.w3.org/2000/svg" version="1.1" width="512px" height="512px" style="shape-rendering:geometricPrecision; text-rendering:geometricPrecision; image-rendering:optimizeQuality; fill-rule:evenodd; clip-rule:evenodd" xmlns:xlink="http://www.w3.org/1999/xlink">
<g><path fill="#85c4ff" d="M -0.5,15.5 C 170.167,15.5 340.833,15.5 511.5,15.5C 511.5,135.5 511.5,255.5 511.5,375.5C 442.833,375.5 374.167,375.5 305.5,375.5C 312.833,405.5 320.167,435.5 327.5,465.5C 348.5,465.5 369.5,465.5 390.5,465.5C 390.5,475.5 390.5,485.5 390.5,495.5C 300.5,495.5 210.5,495.5 120.5,495.5C 120.5,485.5 120.5,475.5 120.5,465.5C 141.5,465.5 162.5,465.5 183.5,465.5C 190.833,435.5 198.167,405.5 205.5,375.5C 136.833,375.5 68.1667,375.5 -0.5,375.5C -0.5,255.5 -0.5,135.5 -0.5,15.5 Z M 29.5,45.5 C 180.167,45.5 330.833,45.5 481.5,45.5C 481.5,145.5 481.5,245.5 481.5,345.5C 330.833,345.5 180.167,345.5 29.5,345.5C 29.5,245.5 29.5,145.5 29.5,45.5 Z M 237.5,375.5 C 249.5,375.5 261.5,375.5 273.5,375.5C 280.833,405.5 288.167,435.5 295.5,465.5C 268.833,465.5 242.167,465.5 215.5,465.5C 222.833,435.5 230.167,405.5 237.5,375.5 Z"/></g>
<g><path fill="#85c4ff" d="M 143.5,77.5 C 151.092,83.7533 158.426,90.4199 165.5,97.5C 172.5,90.8333 179.5,84.1667 186.5,77.5C 193.819,84.3187 200.986,91.3187 208,98.5C 208.667,99.1667 208.667,99.8333 208,100.5C 201.319,107.014 194.819,113.681 188.5,120.5C 195.167,127.5 201.833,134.5 208.5,141.5C 201.681,148.819 194.681,155.986 187.5,163C 186.833,163.667 186.167,163.667 185.5,163C 178.986,156.319 172.319,149.819 165.5,143.5C 158.5,150.167 151.5,156.833 144.5,163.5C 137.181,156.681 130.014,149.681 123,142.5C 122.333,141.833 122.333,141.167 123,140.5C 129.681,133.986 136.181,127.319 142.5,120.5C 135.833,113.5 129.167,106.5 122.5,99.5C 129.521,92.1461 136.521,84.8128 143.5,77.5 Z"/></g>
<g><path fill="#85c4ff" d="M 323.5,77.5 C 331.092,83.7533 338.426,90.4199 345.5,97.5C 352.5,90.8333 359.5,84.1667 366.5,77.5C 373.819,84.3187 380.986,91.3187 388,98.5C 388.667,99.1667 388.667,99.8333 388,100.5C 381.319,107.014 374.819,113.681 368.5,120.5C 375.167,127.5 381.833,134.5 388.5,141.5C 381.681,148.819 374.681,155.986 367.5,163C 366.833,163.667 366.167,163.667 365.5,163C 358.986,156.319 352.319,149.819 345.5,143.5C 338.5,150.167 331.5,156.833 324.5,163.5C 317.181,156.681 310.014,149.681 303,142.5C 302.333,141.833 302.333,141.167 303,140.5C 309.681,133.986 316.181,127.319 322.5,120.5C 315.833,113.5 309.167,106.5 302.5,99.5C 309.521,92.1461 316.521,84.8128 323.5,77.5 Z"/></g>
<g><path fill="#85c4ff" d="M 240.5,195.5 C 292.644,191.642 330.144,212.975 353,259.5C 359.904,277.547 362.404,296.214 360.5,315.5C 350.5,315.5 340.5,315.5 330.5,315.5C 333.427,282.203 321.427,256.036 294.5,237C 256.921,217.983 224.087,224.149 196,255.5C 183.683,273.562 178.516,293.562 180.5,315.5C 170.5,315.5 160.5,315.5 150.5,315.5C 146.642,263.356 167.975,225.856 214.5,203C 223.117,199.851 231.783,197.351 240.5,195.5 Z"/></g>
</svg>
