<?xml version="1.0" encoding="UTF-8"?>
<!DOCTYPE svg PUBLIC "-//W3C//DTD SVG 1.1//EN" "http://www.w3.org/Graphics/SVG/1.1/DTD/svg11.dtd">
<svg xmlns="http://www.w3.org/2000/svg" version="1.1" width="512px" height="512px" style="shape-rendering:geometricPrecision; text-rendering:geometricPrecision; image-rendering:optimizeQuality; fill-rule:evenodd; clip-rule:evenodd" xmlns:xlink="http://www.w3.org/1999/xlink">
<g><path fill="#236cb1" d="M 91.5,-0.5 C 164.167,-0.5 236.833,-0.5 309.5,-0.5C 322.989,3.48598 332.155,12.1526 337,25.5C 338.457,47.7804 338.957,70.1137 338.5,92.5C 396.561,102.06 432.727,135.394 447,192.5C 455.3,251.723 434.134,296.889 383.5,328C 369.367,335.434 354.367,339.934 338.5,341.5C 338.667,388.168 338.5,434.835 338,481.5C 334.091,496.907 324.591,506.907 309.5,511.5C 236.833,511.5 164.167,511.5 91.5,511.5C 74.7954,506.824 64.9621,495.824 62,478.5C 61.3333,329.833 61.3333,181.167 62,32.5C 64.9621,15.1758 74.7954,4.17585 91.5,-0.5 Z M 99.5,9.5 C 166.501,9.33334 233.501,9.5 300.5,10C 314.424,10.926 323.257,18.0927 327,31.5C 327.5,51.4972 327.667,71.4972 327.5,91.5C 324.5,91.5 321.5,91.5 318.5,91.5C 318.667,72.4971 318.5,53.4971 318,34.5C 315.928,27.4269 311.428,22.5936 304.5,20C 285.5,19.3333 266.5,19.3333 247.5,20C 244.15,26.2019 241.484,32.7019 239.5,39.5C 213.498,39.6666 187.498,39.5 161.5,39C 159.03,32.3937 156.03,26.0603 152.5,20C 133.833,19.3333 115.167,19.3333 96.5,20C 89.7634,21.7361 85.2634,25.9028 83,32.5C 81.8393,106.79 81.3393,181.123 81.5,255.5C 81.3393,329.877 81.8393,404.21 83,478.5C 85.917,484.418 90.417,488.585 96.5,491C 165.833,491.667 235.167,491.667 304.5,491C 311.428,488.406 315.928,483.573 318,476.5C 318.5,431.835 318.667,387.168 318.5,342.5C 321.5,342.5 324.5,342.5 327.5,342.5C 327.667,388.168 327.5,433.835 327,479.5C 323.257,492.907 314.424,500.074 300.5,501C 233.5,501.667 166.5,501.667 99.5,501C 85.1775,499.269 76.3441,491.436 73,477.5C 72.3333,329.5 72.3333,181.5 73,33.5C 76.5811,19.6367 85.4144,11.6367 99.5,9.5 Z M 102.5,29.5 C 116.837,29.3334 131.171,29.5001 145.5,30C 147.854,35.8762 150.354,41.7095 153,47.5C 153.903,48.7014 155.069,49.5348 156.5,50C 185.5,50.6667 214.5,50.6667 243.5,50C 244.766,49.6905 245.933,49.1905 247,48.5C 249.776,42.6147 252.276,36.6147 254.5,30.5C 268.822,29.3339 283.155,29.1672 297.5,30C 300.973,30.3194 303.806,31.8194 306,34.5C 307.143,44.4052 307.643,54.4052 307.5,64.5C 307.167,73.8333 306.833,83.1667 306.5,92.5C 248.402,104.099 212.902,138.766 200,196.5C 193.392,258.465 217.558,303.632 272.5,332C 283.701,336.884 295.368,340.05 307.5,341.5C 307.667,385.835 307.5,430.168 307,474.5C 306.215,476.286 305.049,477.786 303.5,479C 235.582,480.66 167.582,480.993 99.5,480C 97.3762,478.878 95.5429,477.378 94,475.5C 92.3381,329.889 92.0047,184.222 93,38.5C 94.4625,33.5476 97.6291,30.5476 102.5,29.5 Z M 315.5,103.5 C 316.5,103.5 317.5,103.5 318.5,103.5C 318.5,124.833 318.5,146.167 318.5,167.5C 306.075,167.115 294.075,164.615 282.5,160C 280.445,159.313 278.779,158.146 277.5,156.5C 282.445,139.1 291.111,123.933 303.5,111C 307.396,108.225 311.396,105.725 315.5,103.5 Z M 329.5,103.5 C 333.867,104.517 337.867,106.35 341.5,109C 355.565,121.952 364.899,137.786 369.5,156.5C 369.182,157.647 368.516,158.481 367.5,159C 355.386,164.323 342.719,167.156 329.5,167.5C 329.5,146.167 329.5,124.833 329.5,103.5 Z M 356.5,108.5 C 373.726,112.96 389.059,121.46 402.5,134C 395.804,141.322 388.137,147.155 379.5,151.5C 375.202,135.229 367.535,120.896 356.5,108.5 Z M 289.5,108.5 C 279.963,121.404 272.63,135.57 267.5,151C 266.092,151.315 264.759,150.982 263.5,150C 257.375,145.544 251.542,140.711 246,135.5C 246.546,132.907 248.046,130.74 250.5,129C 262.08,119.543 275.08,112.709 289.5,108.5 Z M 236.5,142.5 C 245.263,150.385 254.596,157.551 264.5,164C 260.495,179.542 258.495,195.376 258.5,211.5C 242.167,211.5 225.833,211.5 209.5,211.5C 211.249,185.575 220.249,162.575 236.5,142.5 Z M 409.5,142.5 C 426.762,161.716 436.429,184.382 438.5,210.5C 422.18,211.499 405.847,211.833 389.5,211.5C 388.935,195.814 386.935,180.314 383.5,165C 383.759,163.739 384.426,162.739 385.5,162C 394.559,156.772 402.559,150.272 409.5,142.5 Z M 274.5,168.5 C 288.414,174.978 303.081,178.311 318.5,178.5C 318.5,189.5 318.5,200.5 318.5,211.5C 302.167,211.5 285.833,211.5 269.5,211.5C 269.783,196.997 271.45,182.664 274.5,168.5 Z M 372.5,168.5 C 376.042,182.485 378.042,196.818 378.5,211.5C 362.167,211.5 345.833,211.5 329.5,211.5C 329.5,200.5 329.5,189.5 329.5,178.5C 344.655,178.206 358.988,174.873 372.5,168.5 Z M 209.5,222.5 C 225.833,222.5 242.167,222.5 258.5,222.5C 258.537,238.756 260.537,254.756 264.5,270.5C 254.642,276.354 245.642,283.354 237.5,291.5C 220.207,271.889 210.873,248.889 209.5,222.5 Z M 269.5,222.5 C 285.833,222.5 302.167,222.5 318.5,222.5C 318.5,233.5 318.5,244.5 318.5,255.5C 303.545,256.155 289.211,259.489 275.5,265.5C 273.7,261.411 272.534,257.077 272,252.5C 270.571,242.545 269.738,232.545 269.5,222.5 Z M 329.5,222.5 C 345.833,222.5 362.167,222.5 378.5,222.5C 378.053,237.077 376.053,251.411 372.5,265.5C 358.789,259.489 344.455,256.155 329.5,255.5C 329.5,244.5 329.5,233.5 329.5,222.5 Z M 389.5,222.5 C 405.833,222.5 422.167,222.5 438.5,222.5C 436.601,248.617 427.267,271.617 410.5,291.5C 401.605,283.906 392.605,276.573 383.5,269.5C 386.895,254.01 388.895,238.343 389.5,222.5 Z M 311.5,266.5 C 313.833,266.5 316.167,266.5 318.5,266.5C 318.5,287.833 318.5,309.167 318.5,330.5C 314.895,330.201 311.561,329.035 308.5,327C 296.975,317.803 288.475,306.303 283,292.5C 281.068,287.538 279.235,282.538 277.5,277.5C 288.271,271.798 299.605,268.131 311.5,266.5 Z M 329.5,266.5 C 343.856,267.339 357.522,270.839 370.5,277C 366.142,289.882 360.309,302.049 353,313.5C 349.5,318.333 345.333,322.5 340.5,326C 337.274,328.575 333.607,330.075 329.5,330.5C 329.5,309.167 329.5,287.833 329.5,266.5 Z M 266.5,282.5 C 270.722,292.953 275.555,303.286 281,313.5C 283.783,317.951 286.95,322.117 290.5,326C 273.328,321.242 258.328,312.576 245.5,300C 252.106,293.549 259.106,287.715 266.5,282.5 Z M 379.5,282.5 C 388.124,286.942 395.79,292.775 402.5,300C 389.927,312.128 375.26,320.961 358.5,326.5C 357.479,325.998 357.312,325.332 358,324.5C 368.594,312.312 375.761,298.312 379.5,282.5 Z"/></g>
<g><path fill="#236cb1" d="M 183.5,455.5 C 194.838,455.333 206.172,455.5 217.5,456C 221,459.004 221.333,462.337 218.5,466C 206.5,466.667 194.5,466.667 182.5,466C 178.498,462.152 178.831,458.652 183.5,455.5 Z"/></g>
</svg>
