<?xml version="1.0" encoding="UTF-8"?>
<!DOCTYPE svg PUBLIC "-//W3C//DTD SVG 1.1//EN" "http://www.w3.org/Graphics/SVG/1.1/DTD/svg11.dtd">
<svg xmlns="http://www.w3.org/2000/svg" version="1.1" width="512px" height="512px" style="shape-rendering:geometricPrecision; text-rendering:geometricPrecision; image-rendering:optimizeQuality; fill-rule:evenodd; clip-rule:evenodd" xmlns:xlink="http://www.w3.org/1999/xlink">
<g><path fill="#236cb1" d="M 115.5,-0.5 C 182.167,-0.5 248.833,-0.5 315.5,-0.5C 341.037,6.2061 356.537,22.5394 362,48.5C 362.5,89.1653 362.667,129.832 362.5,170.5C 405.601,177.268 431.935,201.935 441.5,244.5C 447.027,285.266 432.693,316.766 398.5,339C 387.359,345.547 375.359,349.381 362.5,350.5C 362.667,387.835 362.5,425.168 362,462.5C 356.537,488.461 341.037,504.794 315.5,511.5C 248.833,511.5 182.167,511.5 115.5,511.5C 90.8483,505.014 75.3483,489.348 69,464.5C 68.3333,325.167 68.3333,185.833 69,46.5C 75.0145,21.3194 90.5145,5.65272 115.5,-0.5 Z M 126.5,19.5 C 188.525,19.0301 250.525,19.5301 312.5,21C 326.527,24.8595 335.86,33.6929 340.5,47.5C 257.169,48.5 173.836,48.8333 90.5,48.5C 95.9926,30.6673 107.993,21.0006 126.5,19.5 Z M 89.5,69.5 C 173.5,69.5 257.5,69.5 341.5,69.5C 341.5,103.167 341.5,136.833 341.5,170.5C 327.463,171.901 314.63,176.568 303,184.5C 302.667,172.5 302.333,160.5 302,148.5C 301.214,145.417 299.381,143.251 296.5,142C 284.505,141.5 272.505,141.333 260.5,141.5C 257.145,114.645 241.979,100.311 215,98.5C 188.207,100.46 173.374,114.793 170.5,141.5C 158.495,141.333 146.495,141.5 134.5,142C 132,143.167 130.167,145 129,147.5C 128.333,198.167 128.333,248.833 129,299.5C 133.5,317.333 144.667,328.5 162.5,333C 198.167,333.667 233.833,333.667 269.5,333C 276.241,331.379 282.407,328.546 288,324.5C 302.646,339.558 320.479,348.225 341.5,350.5C 341.5,369.5 341.5,388.5 341.5,407.5C 257.5,407.5 173.5,407.5 89.5,407.5C 89.5,294.833 89.5,182.167 89.5,69.5 Z M 209.5,119.5 C 226.023,118.032 236.023,125.365 239.5,141.5C 223.5,141.5 207.5,141.5 191.5,141.5C 193.269,130.593 199.269,123.259 209.5,119.5 Z M 149.5,162.5 C 156.5,162.5 163.5,162.5 170.5,162.5C 170.334,170.84 170.5,179.173 171,187.5C 174.986,194.495 180.486,195.995 187.5,192C 189.041,190.421 190.208,188.587 191,186.5C 191.5,178.507 191.666,170.507 191.5,162.5C 207.5,162.5 223.5,162.5 239.5,162.5C 239.334,170.84 239.5,179.173 240,187.5C 246.667,196.833 253.333,196.833 260,187.5C 260.5,179.173 260.666,170.84 260.5,162.5C 267.5,162.5 274.5,162.5 281.5,162.5C 281.667,176.504 281.5,190.504 281,204.5C 262.347,229.1 257.014,256.433 265,286.5C 267.108,293.996 270.275,300.996 274.5,307.5C 272.287,309.774 269.621,311.274 266.5,312C 232.833,312.667 199.167,312.667 165.5,312C 158.819,309.987 153.986,305.82 151,299.5C 149.515,253.893 149.015,208.227 149.5,162.5 Z M 347.5,190.5 C 387.084,191.6 411.584,211.267 421,249.5C 424.229,282.212 411.729,306.712 383.5,323C 348.392,337.314 318.892,329.814 295,300.5C 277.569,271.829 278.569,243.829 298,216.5C 311.181,201.328 327.681,192.661 347.5,190.5 Z M 89.5,428.5 C 173.5,428.5 257.5,428.5 341.5,428.5C 341.915,440.562 341.415,452.562 340,464.5C 333.91,480.967 322.077,489.801 304.5,491C 245.167,491.667 185.833,491.667 126.5,491C 109.143,490.234 97.3096,481.734 91,465.5C 89.5824,453.228 89.0824,440.895 89.5,428.5 Z"/></g>
<g><path fill="#236cb1" d="M 344.5,215.5 C 356.109,214.76 366.609,217.76 376,224.5C 388.744,220.056 394.244,224.723 392.5,238.5C 394.66,251.485 389.16,257.151 376,255.5C 363.856,256.69 358.523,251.357 360,239.5C 348.432,234.748 338.266,236.914 329.5,246C 317.233,247.641 312.733,242.474 316,230.5C 323.705,221.899 333.205,216.899 344.5,215.5 Z"/></g>
<g><path fill="#236cb1" d="M 317.5,266.5 C 325.279,266.068 332.946,266.568 340.5,268C 344.416,271.654 345.416,275.988 343.5,281C 351.45,285.655 359.45,285.655 367.5,281C 371.586,275.622 376.92,273.622 383.5,275C 389.109,278.277 390.942,283.11 389,289.5C 376.78,303.127 361.613,307.961 343.5,304C 338.231,302.363 333.231,300.197 328.5,297.5C 321.568,300.578 316.068,298.912 312,292.5C 311.333,285.833 311.333,279.167 312,272.5C 313.36,269.977 315.193,267.977 317.5,266.5 Z"/></g>
<g><path fill="#236cb1" d="M 134.5,354.5 C 188.501,354.333 242.501,354.5 296.5,355C 302.388,358.847 303.888,364.013 301,370.5C 299.363,372.81 297.196,374.31 294.5,375C 241.833,375.667 189.167,375.667 136.5,375C 128.663,371.816 126.496,366.316 130,358.5C 131.397,356.93 132.897,355.596 134.5,354.5 Z"/></g>
<g><path fill="#236cb1" d="M 199.5,449.5 C 210.172,449.333 220.839,449.5 231.5,450C 237.025,452.919 238.858,457.419 237,463.5C 235.413,466.756 232.913,468.923 229.5,470C 219.093,470.926 208.759,470.592 198.5,469C 195.134,466.962 193.467,463.962 193.5,460C 193.324,455.177 195.324,451.677 199.5,449.5 Z"/></g>
</svg>
